<svg xmlns="http://www.w3.org/2000/svg" viewBox="0 0 64 64">
  <defs>
    <linearGradient id="g" x1="0" y1="0" x2="1" y2="1">
      <stop offset="0%" stop-color="#2563eb" />
      <stop offset="100%" stop-color="#7c3aed" />
    </linearGradient>
  </defs>
  <rect x="4" y="4" width="56" height="56" rx="14" fill="url(#g)" />
  <path
    d="M20 44V20h9.2c3.4 0 5.9.7 7.6 2.2 1.7 1.4 2.5 3.4 2.5 5.9 0 2.6-.8 4.6-2.5 6-1.7 1.5-4.2 2.2-7.6 2.2h-4.5V44H20zm4.7-11.4h4.1c2 0 3.5-.4 4.5-1.1 1-.8 1.5-1.9 1.5-3.3s-.5-2.5-1.5-3.2c-1-.8-2.5-1.1-4.5-1.1h-4.1v8.7z"
    fill="#fff"
  />
  <circle cx="44" cy="42" r="6" fill="#fff" fill-opacity="0.9" />
</svg>
